<svg width="60" height="60" viewBox="0 0 60 60" fill="none" xmlns="http://www.w3.org/2000/svg">
<path d="M51.9352 15.9271C51.9322 15.9233 51.9291 15.9194 51.9261 15.9155C51.8751 15.8544 51.8217 15.7941 51.7635 15.7359L36.7647 0.737163C36.7065 0.678926 36.6462 0.625493 36.5851 0.574521C36.5813 0.571357 36.5773 0.568427 36.5735 0.565381C36.0608 0.142838 35.4562 -0.0288272 34.871 0.00503714H9.99911C8.61852 0.00503714 7.49936 1.1242 7.49936 2.50479V57.5001C7.49936 58.8807 8.61852 59.9999 9.99911 59.9999H49.9957C51.3763 59.9999 52.4955 58.8807 52.4955 57.5001V17.6296C52.5294 17.0445 52.3579 16.4398 51.9352 15.9271ZM43.9607 15.0038H37.4968V8.53979L43.9607 15.0038ZM12.499 55.0004V5.00454H32.4973V17.5035C32.4973 18.8841 33.6165 20.0033 34.9971 20.0033H47.4961V55.0004H12.499Z" fill="url(#paint0_linear_201_2)"/>
<path d="M42.4964 30.0025H37.4968C36.1162 30.0025 34.9971 31.1217 34.9971 32.5023C34.9971 33.8829 36.1162 35.002 37.4968 35.002H42.4964C43.877 35.002 44.9962 33.8829 44.9962 32.5023C44.9962 31.1217 43.877 30.0025 42.4964 30.0025Z" fill="url(#paint1_linear_201_2)"/>
<path d="M17.4985 35.002H27.4976C28.8782 35.002 29.9973 33.8829 29.9973 32.5023C29.9973 31.1217 28.8782 30.0025 27.4976 30.0025H17.4985C16.1179 30.0025 14.9987 31.1217 14.9987 32.5023C14.9987 33.8829 16.1179 35.002 17.4985 35.002Z" fill="url(#paint2_linear_201_2)"/>
<path d="M22.4981 15.0038C23.878 15.0038 24.9979 13.8839 24.9979 12.504C24.9979 11.1241 23.878 10.0042 22.4981 10.0042C21.1182 10.0042 19.9984 11.124 19.9984 12.5039C19.9984 13.8838 21.1182 15.0038 22.4981 15.0038Z" fill="url(#paint3_linear_201_2)"/>
<path d="M22.4981 17.5035C19.7359 17.5035 17.4985 20.4333 17.4985 22.5031H27.4976C27.4977 20.4333 25.2603 17.5035 22.4981 17.5035Z" fill="url(#paint4_linear_201_2)"/>
<path d="M40.0854 41.8357C39.6154 44.188 32.6286 41.7857 31.7661 40.7333C30.6962 39.4334 28.6264 39.9959 27.8389 41.2408C26.6465 43.1256 20.7721 43.0881 19.6571 41.2408C17.9973 38.4885 13.6726 40.9984 15.34 43.763C17.9899 48.1557 25.7983 48.7856 30.1368 45.8148C34.7518 48.4967 43.7725 48.8407 44.9075 43.1657C45.5349 40.0234 40.7178 38.6785 40.0854 41.8357Z" fill="url(#paint5_linear_201_2)"/>
<defs>
<linearGradient id="paint0_linear_201_2" x1="29.9906" y1="23.9263" x2="30.0506" y2="59.9998" gradientUnits="userSpaceOnUse">
<stop offset="0.375391" stop-color="#0DCEDA"/>
<stop offset="0.760966" stop-color="#6EF3D6"/>
</linearGradient>
<linearGradient id="paint1_linear_201_2" x1="39.9946" y1="31.9961" x2="39.9965" y2="35.002" gradientUnits="userSpaceOnUse">
<stop offset="0.375391" stop-color="#0DCEDA"/>
<stop offset="0.760966" stop-color="#6EF3D6"/>
</linearGradient>
<linearGradient id="paint2_linear_201_2" x1="22.495" y1="31.9961" x2="22.4963" y2="35.002" gradientUnits="userSpaceOnUse">
<stop offset="0.375391" stop-color="#0DCEDA"/>
<stop offset="0.760966" stop-color="#6EF3D6"/>
</linearGradient>
<linearGradient id="paint3_linear_201_2" x1="22.4971" y1="11.9978" x2="22.5009" y2="15.0038" gradientUnits="userSpaceOnUse">
<stop offset="0.375391" stop-color="#0DCEDA"/>
<stop offset="0.760966" stop-color="#6EF3D6"/>
</linearGradient>
<linearGradient id="paint4_linear_201_2" x1="22.496" y1="19.4972" x2="22.4979" y2="22.5031" gradientUnits="userSpaceOnUse">
<stop offset="0.375391" stop-color="#0DCEDA"/>
<stop offset="0.760966" stop-color="#6EF3D6"/>
</linearGradient>
<linearGradient id="paint5_linear_201_2" x1="29.958" y1="43.0596" x2="29.9595" y2="47.685" gradientUnits="userSpaceOnUse">
<stop offset="0.375391" stop-color="#0DCEDA"/>
<stop offset="0.760966" stop-color="#6EF3D6"/>
</linearGradient>
</defs>
</svg>
